<svg xmlns="http://www.w3.org/2000/svg" viewBox="0 0 512 512">
    <defs>
        <style>
            .cls-1 {
                fill: #fff;
            }

            .cls-2 {
                fill: #544bd2;
            }
        </style>
    </defs>
    <g id="Layer_2" data-name="Layer 2">
        <g id="Layer_1-2" data-name="Layer 1">
            <rect class="cls-1" width="512" height="512" rx="30" />
            <path class="cls-2"
                d="M259.73,155.68q30.72,24.65,39.74,66.65H236.64a57.69,57.69,0,0,0-21.35-26.73q-14.4-9.72-34.19-9.72-26,0-42,19.09t-16,51q0,32,16,50.86t42,18.92q19.78,0,34.19-9.72a58,58,0,0,0,21.35-26.39h62.83q-9,41.65-39.74,66.48T182.14,381q-35.76,0-62.83-15.79a107.22,107.22,0,0,1-41.83-44.26Q62.72,292.45,62.72,256t14.76-64.92a107.28,107.28,0,0,1,41.83-44.26Q146.39,131,182.14,131,229,131,259.73,155.68Z" />
            <path class="cls-2"
                d="M440.93,160.92A59.3,59.3,0,0,0,390.55,131h-2.69a59.3,59.3,0,0,0-50.39,29.91,60.82,60.82,0,0,0-.79,60.11L380,300.34l.06.1a10.52,10.52,0,0,0,18.27,0l.06-.1L441.73,221a60.84,60.84,0,0,0-.8-60.11ZM389.2,210.18a24.58,24.58,0,1,1,24.57-24.57A24.6,24.6,0,0,1,389.2,210.18Z" />
            <circle class="cls-2" cx="389.2" cy="356.5" r="24.5" />
        </g>
    </g>
</svg>